<?xml version="1.0" standalone="no"?>
<!DOCTYPE svg PUBLIC "-//W3C//DTD SVG 20010904//EN"
 "http://www.w3.org/TR/2001/REC-SVG-20010904/DTD/svg10.dtd">
<svg version="1.0" xmlns="http://www.w3.org/2000/svg"
 width="150.000000pt" height="150.000000pt" viewBox="0 0 150.000000 150.000000"
 preserveAspectRatio="xMidYMid meet">
<metadata>
Created by potrace 1.14, written by Peter Selinger 2001-2017
</metadata>
<g transform="translate(0.000000,150.000000) scale(0.100000,-0.100000)"
fill="#000000" stroke="none">
<path d="M508 1275 c-111 -18 -199 -52 -214 -84 -7 -13 -29 -33 -51 -45 l-38
-22 -3 -291 -2 -292 -33 -3 c-27 -2 -33 -8 -35 -31 -3 -21 1 -27 15 -27 33 0
43 -21 43 -91 0 -60 2 -68 21 -74 14 -5 28 0 44 15 l24 22 27 -21 c29 -23 119
-30 152 -12 12 6 26 5 42 -5 14 -7 19 -13 12 -14 -10 0 -12 -21 -10 -87 l3
-88 49 -3 c27 -2 54 2 59 7 8 8 7 11 -4 12 -7 0 -30 1 -49 2 -32 2 -35 5 -35
32 0 28 3 30 43 33 56 4 54 22 -3 22 -41 0 -45 2 -45 25 0 23 3 25 51 25 41 0
50 3 45 15 -4 12 3 15 31 15 33 0 35 -1 19 -13 -22 -16 -19 -81 4 -84 85 -11
91 -13 88 -41 -3 -23 -8 -27 -41 -30 -32 -3 -39 0 -44 17 -7 27 -23 27 -23 1
0 -23 28 -40 67 -40 45 0 65 20 61 60 -3 33 -6 36 -53 46 -39 8 -50 14 -50 30
0 15 8 20 43 22 33 2 42 0 42 -12 0 -9 5 -16 10 -16 17 0 11 38 -7 49 -15 9
-13 10 12 11 40 0 53 10 57 42 2 15 6 29 9 32 2 3 35 6 72 7 52 2 67 6 67 17
0 13 13 14 77 8 42 -3 79 -10 82 -15 3 -4 47 -8 96 -8 l90 0 5 266 5 266 -23
23 c-13 12 -30 22 -38 22 -11 0 -14 21 -14 109 0 140 -9 150 -168 187 -96 22
-467 28 -584 9z m124 -501 c65 -19 84 -40 79 -89 -6 -59 -28 -64 -133 -35
l-38 11 0 64 c0 75 0 75 92 49z m-369 -261 l-33 -4 0 -85 c0 -49 -4 -84 -10
-84 -6 0 -10 34 -10 83 l0 84 -30 -2 c-16 -1 -30 2 -30 7 0 4 33 7 73 6 39 0
57 -3 40 -5z m185 -23 l3 -25 -19 23 c-14 18 -26 23 -53 20 -30 -3 -34 -6 -34
-33 0 -26 4 -30 30 -33 70 -6 75 -10 75 -51 0 -43 -10 -51 -65 -51 -50 0 -65
9 -64 39 0 26 0 26 11 4 9 -19 19 -23 55 -23 41 0 43 1 43 30 0 30 -5 32 -90
43 -8 1 -16 15 -18 30 -6 51 2 58 65 55 53 -3 58 -5 61 -28z m180 18 c5 -7 12
-45 14 -85 3 -65 2 -72 -17 -77 -36 -10 -111 -6 -123 6 -7 7 -12 40 -12 78 0
38 5 71 12 78 16 16 113 16 126 0z m72 -68 l0 -80 50 0 c28 0 50 -4 50 -10 0
-6 -27 -10 -60 -10 l-60 0 0 90 c0 53 4 90 10 90 6 0 10 -33 10 -80z m600 -1
c0 -15 -51 -30 -95 -27 -47 3 -73 23 -39 30 29 5 134 3 134 -3z m-990 -35 c0
-2 -17 -4 -37 -3 -29 0 -33 2 -18 8 18 7 55 4 55 -5z"/>
<path d="M517 504 c-4 -4 -7 -38 -7 -76 l0 -68 53 0 52 1 -30 24 c-22 18 -25
25 -13 25 9 0 20 -4 23 -10 16 -26 26 -6 23 48 l-3 57 -45 3 c-25 2 -49 0 -53
-4z m67 -43 c3 -5 -1 -12 -10 -15 -20 -8 -29 -1 -19 13 8 13 22 14 29 2z"/>
<path d="M165 290 c3 -5 17 -10 30 -10 23 0 24 -3 27 -75 2 -42 7 -75 13 -75
6 0 11 33 13 75 3 72 4 75 27 75 13 0 27 5 30 10 4 6 -22 10 -70 10 -48 0 -74
-4 -70 -10z"/>
<path d="M320 225 c0 -69 2 -76 25 -91 29 -19 102 -14 116 8 5 7 9 46 9 86 0
56 -3 72 -15 72 -11 0 -15 -18 -17 -77 l-3 -78 -40 0 -40 0 -3 78 c-2 59 -6
77 -17 77 -12 0 -15 -16 -15 -75z"/>
<path d="M812 213 l3 -88 56 0 c77 0 89 13 89 89 0 35 -5 67 -12 74 -7 7 -39
12 -75 12 l-64 0 3 -87z m122 51 c9 -23 7 -87 -3 -103 -5 -8 -27 -15 -53 -15
l-43 -1 -3 54 c-2 29 -1 60 2 67 8 21 92 19 100 -2z"/>
<path d="M1037 283 c-3 -10 -16 -48 -31 -85 -16 -44 -22 -69 -15 -74 6 -3 13
3 16 15 8 31 87 30 114 -1 28 -35 24 -5 -12 85 -23 55 -36 77 -49 77 -10 0
-20 -8 -23 -17z m63 -100 c0 -2 -16 -3 -35 -3 -40 0 -41 4 -18 61 l16 41 19
-48 c10 -27 18 -50 18 -51z"/>
<path d="M1156 288 c4 -7 17 -26 28 -43 11 -16 23 -50 26 -75 6 -56 23 -55 30
2 3 24 18 61 33 82 14 22 24 42 21 45 -6 6 -27 -16 -55 -59 l-16 -24 -24 42
c-13 23 -30 42 -37 42 -8 0 -10 -5 -6 -12z"/>
</g>
</svg>
